PathFileType	4	(X/Y/Z)	Walk10.trc
DataRate	CameraRate	NumFrames	NumMarkers	Units	OrigDataRate	OrigDataStartFrame	OrigNumFrames
200.000000	200.000000	4	60	mm	200.000000	223	568
Frame#	Times		LFHD		RFHD		CLAV		STRN		LASI		RASI		RACR1		RUA1		RElbow		RFA1		RWRR		RWRU		RCAR		LACR1		LUA1		LElbow		LFA1		LWRR		LWRU		LCAR		RTH2		RTB1		RTB2		LTH1		LTH3		LTH2		LLFC		LMFC		LTB1		LTB2		LTB4		LMT1		RTB4		LTB3		RTH3		RTB3		LToe		RMFC		LTH4		RElbowM		RTH4		RToe		RTH1		RMT1		RMMAL		RLFC		LBHD		RCAL		RBack		LMT5		RLMAL		RPSI		LMMAL		T10		C7		LPSI		LLMAL		LElbowM		LCAL		RBHD
			X1	Y1	Z1	X2	Y2	Z2	X3	Y3	Z3	X4	Y4	Z4	X5	Y5	Z5	X6	Y6	Z6	X7	Y7	Z7	X8	Y8	Z8	X9	Y9	Z9	X10	Y10	Z10	X11	Y11	Z11	X12	Y12	Z12	X13	Y13	Z13	X14	Y14	Z14	X15	Y15	Z15	X16	Y16	Z16	X17	Y17	Z17	X18	Y18	Z18	X19	Y19	Z19	X20	Y20	Z20	X21	Y21	Z21	X22	Y22	Z22	X23	Y23	Z23	X24	Y24	Z24	X25	Y25	Z25	X26	Y26	Z26	X27	Y27	Z27	X28	Y28	Z28	X29	Y29	Z29	X30	Y30	Z30	X31	Y31	Z31	X32	Y32	Z32	X33	Y33	Z33	X34	Y34	Z34	X35	Y35	Z35	X36	Y36	Z36	X37	Y37	Z37	X38	Y38	Z38	X39	Y39	Z39	X40	Y40	Z40	X41	Y41	Z41	X42	Y42	Z42	X43	Y43	Z43	X44	Y44	Z44	X45	Y45	Z45	X46	Y46	Z46	X47	Y47	Z47	X48	Y48	Z48	X49	Y49	Z49	X50	Y50	Z50	X51	Y51	Z51	X52	Y52	Z52	X53	Y53	Z53	X54	Y54	Z54	X55	Y55	Z55	X56	Y56	Z56	X57	Y57	Z57	X58	Y58	Z58	X59	Y59	Z59	X60	Y60	Z60

223	1.115	-575.65	1629.9	-42.695	-579.08	1639.2	56.898	-574.38	1380.3	37.969	-504.16	1224.6	50.333	-600.82	953.5	-128.43	-640.4	968.93	239.8	-709.55	1468	191.85	-729.06	1305.3	318.45	-699.2	1167	383.69	-610.21	1048.9	386.02	-542.54	957.18	307.32	-546.28	955.08	388.89	-477.96	901.03	351.21	-672.87	1439.1	-156.24	-733.07	1272.3	-239.32	-781.17	1111.2	-277.99	-790.67	970.33	-279.83	-770.33	843.5	-209.32	-818.4	831.88	-265.93	-787.6	751.04	-229.94	-730.28	667.16	224.42	-828.02	344.88	126.36	-889.3	272.13	172.08	-597.18	749.26	-160.24	-525.83	594.84	-134.77	-513.5	699.08	-124.28	-514.22	512.92	-134.16	-494.22	509.14	22.393	-406.58	427.36	-80.579	-408.61	330.1	-119.18	-378.83	348.83	-67.866	-214.26	109.84	-53.471	-869.53	269.03	114.51	-357.27	264.72	-56.046	-800.58	589.52	220.4	-910.6	194.39	101.99	-175.45	131.21	-95.515	-841.47	488.25	49.682	-562.48	672.77	-148.85	-727.67	1083.3	283.26	-787.63	673.07	234.9	-841.07	24.984	115.17	-775.77	757.62	250.42	-889.73	23.539	77.053	-1001.9	88.862	35.572	-845.02	477.74	204.14	-724.52	1549.2	-52.658	-1104.5	74.037	71.369	-843.24	1338.9	129.1	-263.31	67.545	-120.61	-1039.3	89.343	121.73	-880.14	1012.3	53.263	-352.65	102.22	22.887	-831.05	1140.2	20.877	-769.21	1456.4	15.357	-857.56	1005.3	-26.262	-379.67	82.351	-59.254	-858.62	1080.4	-183.91	-407.58	35.231	0.50224	-716.56	1567.1	93.868
224	1.12	-568.66	1628.7	-43.969	-572.17	1638.1	55.622	-567.3	1379.1	36.916	-497.15	1223.5	49.654	-593.58	952.33	-128.81	-633.67	967.97	239.19	-702.6	1467.1	190.61	-722.18	1304.5	317.34	-692.58	1166.3	382.63	-603.56	1048.2	384.95	-535.82	956.57	306.21	-539.57	954.44	387.79	-471.2	900.51	350.09	-665.68	1437.6	-157.42	-725.87	1270.7	-240.3	-774.07	1109.7	-278.87	-783.82	968.72	-280.43	-764.01	842.07	-209.55	-811.9	830.39	-266.33	-781.6	749.53	-229.77	-725.3	666.17	224.23	-824.87	344.15	126.1	-886.98	272.08	171.76	-589	748.94	-160.37	-517.71	594.53	-134.87	-505.35	698.76	-124.34	-506.08	512.65	-134.45	-486.79	508.52	22.065	-399.26	426.09	-80.197	-402.05	328.89	-118.91	-372.42	347.25	-67.347	-210.86	105.71	-52.237	-867.08	268.68	114.23	-351.9	262.9	-55.476	-795.97	588.86	220.01	-908.86	194.45	101.68	-171.57	126.64	-93.817	-836.6	487.64	49.239	-554.36	672.45	-148.85	-721.19	1082.5	282.18	-782.62	672.36	234.54	-840.95	24.922	115.27	-770.4	756.87	250.1	-889.59	23.52	77.053	-1001	89.762	35.244	-841.04	477.35	203.73	-717.47	1547.9	-54	-1103.8	75.903	70.843	-836.34	1338.1	127.98	-260.33	64.373	-119.64	-1038.6	90.589	121.32	-873.25	1011	52.677	-349.7	100.26	23.301	-824.1	1139	20.385	-762.27	1455.2	14.042	-850.55	1004	-26.609	-376.56	80.983	-59.102	-851.99	1079.2	-185.09	-405.6	34.609	0.46583	-709.63	1565.9	92.47
225	1.125	-561.62	1627.5	-45.271	-565.23	1637.1	54.318	-560.2	1377.9	35.829	-490.1	1222.4	48.934	-586.35	951.22	-129.21	-626.86	967.01	238.56	-695.6	1466.3	189.36	-715.27	1303.8	316.21	-685.96	1165.6	381.55	-596.97	1047.5	383.86	-529.19	955.94	305.1	-532.95	953.77	386.69	-464.55	899.95	348.96	-658.51	1436	-158.62	-718.65	1269	-241.28	-766.91	1108.1	-279.76	-776.89	967.1	-281.05	-757.57	840.62	-209.83	-805.29	828.87	-266.77	-775.45	748	-229.67	-720.19	665.22	224.03	-821.59	343.44	125.84	-884.54	272.08	171.43	-580.9	748.65	-160.5	-509.67	594.25	-135	-497.25	698.47	-124.48	-498.05	512.43	-134.79	-479.52	507.91	21.684	-392.03	424.85	-79.878	-395.61	327.73	-118.69	-366.13	345.71	-66.885	-207.66	101.39	-51.081	-864.53	268.37	113.95	-346.66	261.13	-54.968	-791.22	588.23	219.59	-907.03	194.58	101.37	-167.9	121.82	-92.176	-831.56	487.03	48.787	-546.33	672.16	-148.84	-714.76	1081.8	281.05	-777.49	671.67	234.15	-840.83	24.865	115.36	-764.92	756.15	249.74	-889.46	23.499	77.048	-1000.1	90.762	34.928	-836.91	476.99	203.31	-710.38	1546.7	-55.368	-1103.1	77.944	70.332	-829.41	1337.3	126.88	-257.64	61.086	-118.73	-1037.9	91.959	120.92	-866.3	1009.8	52.067	-346.91	98.394	23.679	-817.14	1137.9	19.927	-755.3	1454.1	12.716	-843.51	1002.8	-26.974	-373.66	79.709	-58.978	-845.29	1077.8	-186.27	-403.87	34.185	0.42536	-702.68	1564.9	91.049
226	1.13	-554.55	1626.5	-46.598	-558.26	1636.1	52.987	-553.05	1376.8	34.712	-483	1221.4	48.176	-579.14	950.18	-129.6	-619.96	966.06	237.89	-688.55	1465.6	188.09	-708.34	1303.2	315.06	-679.35	1165	380.43	-590.43	1046.9	382.75	-522.64	955.29	303.98	-526.44	953.07	385.58	-458.02	899.33	347.85	-651.34	1434.5	-159.84	-711.43	1267.4	-242.26	-759.68	1106.4	-280.65	-769.86	965.46	-281.69	-751.01	839.15	-210.15	-798.55	827.33	-267.25	-769.15	746.46	-229.65	-714.96	664.31	223.81	-818.16	342.76	125.59	-881.99	272.14	171.1	-572.88	748.41	-160.65	-501.72	594.02	-135.18	-489.22	698.23	-124.69	-490.1	512.29	-135.17	-472.41	507.33	21.24	-384.87	423.68	-79.642	-389.28	326.64	-118.53	-359.92	344.23	-66.498	-204.62	96.954	-50.032	-861.86	268.11	113.67	-341.52	259.43	-54.539	-786.32	587.63	219.15	-905.1	194.78	101.07	-164.42	116.79	-90.635	-826.34	486.43	48.332	-538.39	671.92	-148.86	-708.39	1081.1	279.87	-772.23	671.01	233.74	-840.72	24.812	115.43	-759.34	755.46	249.34	-889.33	23.473	77.037	-999.07	91.873	34.632	-832.61	476.66	202.91	-703.26	1545.5	-56.76	-1102.3	80.173	69.846	-822.45	1336.6	125.79	-255.21	57.734	-117.9	-1037	93.458	120.53	-859.29	1008.6	51.434	-344.25	96.65	24.009	-810.16	1136.9	19.504	-748.3	1453	11.38	-836.44	1001.7	-27.362	-370.94	78.556	-58.889	-838.5	1076.5	-187.45	-402.33	33.977	0.37867	-695.71	1563.9	89.608
